<?xml version="1.0" standalone="no"?>
<!DOCTYPE svg PUBLIC "-//W3C//DTD SVG 20010904//EN"
 "http://www.w3.org/TR/2001/REC-SVG-20010904/DTD/svg10.dtd">
<svg version="1.0" xmlns="http://www.w3.org/2000/svg"
 width="512.000000pt" height="512.000000pt" viewBox="0 0 512.000000 512.000000"
 preserveAspectRatio="xMidYMid meet">
<metadata>
Created by potrace 1.14, written by Peter Selinger 2001-2017
</metadata>
<g transform="translate(0.000000,512.000000) scale(0.100000,-0.100000)"
fill="#000000" stroke="none">
<path d="M2480 5110 c-38 -11 -102 -46 -131 -72 -84 -77 -106 -144 -108 -333
-1 -77 -3 -140 -4 -142 -1 -1 -47 -11 -102 -22 -211 -45 -456 -145 -651 -268
l-111 -70 -105 102 c-59 58 -124 111 -152 124 -243 118 -513 -100 -447 -362
19 -75 59 -132 169 -240 l80 -78 -68 -107 c-64 -102 -170 -308 -170 -331 0 -6
-4 -19 -9 -29 -27 -48 -87 -255 -105 -364 l-7 -38 -137 -1 c-75 0 -148 -3
-162 -5 -47 -9 -125 -51 -164 -89 -92 -91 -119 -240 -64 -355 43 -91 117 -155
206 -177 23 -6 104 -12 179 -12 76 -1 138 -3 140 -4 1 -1 11 -47 22 -102 29
-135 89 -309 156 -446 56 -118 71 -144 141 -252 l41 -64 -103 -106 c-65 -66
-111 -123 -125 -154 -73 -161 -12 -339 145 -421 44 -23 63 -27 141 -27 121 0
159 20 294 151 l104 101 110 -70 c212 -134 487 -242 720 -282 l37 -6 0 -135
c0 -156 11 -211 54 -275 141 -211 448 -188 555 40 24 52 26 68 29 213 l4 156
36 7 c234 41 511 150 723 285 l106 67 94 -92 c134 -133 195 -166 303 -166 92
0 173 36 242 109 51 55 86 173 73 253 -13 83 -46 135 -153 246 l-103 106 70
111 c135 215 250 508 281 714 2 19 6 35 8 37 2 2 75 5 163 7 150 4 163 6 210
30 28 15 61 37 76 50 170 155 131 427 -76 524 -64 30 -83 32 -242 33 l-132 1
-7 38 c-41 237 -156 528 -292 737 l-59 90 102 105 c150 155 181 241 143 390
-27 105 -140 199 -260 218 -119 18 -194 -16 -336 -153 l-106 -102 -41 26 c-22
14 -41 29 -43 34 -2 4 -8 7 -13 7 -6 0 -34 16 -64 35 -143 91 -410 196 -601
236 -54 11 -99 21 -100 22 -1 1 -4 72 -6 157 -3 142 -6 160 -30 210 -40 85
-116 154 -193 175 -41 11 -145 14 -175 5z m155 -241 l30 -29 0 -127 0 -127
-106 -1 -105 0 1 127 c1 126 1 128 29 157 46 48 101 48 151 0z m205 -519 c389
-67 715 -231 986 -496 309 -304 488 -677 539 -1129 7 -56 7 -270 0 -330 -54
-518 -313 -980 -716 -1280 -83 -62 -124 -89 -219 -144 -164 -96 -423 -181
-640 -209 -72 -9 -401 -9 -465 0 -149 22 -327 67 -387 99 -10 5 -23 9 -29 9
-21 0 -233 106 -309 155 -402 258 -677 633 -794 1085 -13 52 -28 114 -31 138
-4 23 -9 54 -12 70 -3 15 -6 115 -8 222 -4 257 20 404 102 635 154 433 489
806 905 1011 149 72 354 140 484 159 22 3 60 9 85 14 85 16 396 10 509 -9z
m-1803 -122 c32 -25 163 -153 163 -161 0 -7 -141 -147 -147 -147 -12 0 -172
171 -178 190 -30 94 83 176 162 118z m3186 -19 c49 -60 36 -99 -71 -208 -44
-45 -82 -81 -85 -81 -7 0 -147 140 -147 147 0 9 128 134 163 161 45 33 102 26
140 -19z m-3691 -1553 c2 -6 4 -54 3 -106 l-1 -95 -127 0 -127 0 -29 30 c-44
44 -46 107 -5 148 31 31 39 32 176 33 70 1 108 -3 110 -10z m4340 -23 c44 -44
44 -102 0 -146 l-31 -31 -128 0 -128 -1 0 100 c0 55 1 103 2 106 2 4 59 6 128
5 l126 -2 31 -31z m-3743 -1505 c39 -40 71 -74 71 -77 0 -2 -40 -44 -90 -92
-89 -87 -90 -88 -137 -85 -39 2 -51 8 -73 34 -51 61 -38 103 65 208 45 46 85
84 88 84 3 0 37 -32 76 -72z m3009 5 c91 -91 103 -106 108 -141 14 -88 -95
-155 -164 -101 -28 22 -162 156 -162 161 0 8 134 145 142 147 5 0 38 -29 76
-66z m-1482 -602 c18 -2 12 -239 -6 -268 -35 -55 -115 -62 -163 -14 -31 30
-31 31 -33 153 -1 68 -1 125 1 128 3 4 166 5 201 1z"/>
<path d="M2345 4144 c-234 -35 -446 -112 -640 -235 -79 -50 -75 -47 -170 -125
-69 -57 -88 -76 -170 -165 -174 -189 -318 -474 -369 -729 -27 -136 -29 -154
-31 -309 -3 -262 46 -489 155 -712 246 -504 715 -836 1270 -898 80 -9 338 -7
380 3 14 3 43 8 64 11 60 8 188 42 268 72 339 121 637 365 824 673 116 192
200 437 222 645 8 82 8 307 0 377 -76 610 -500 1129 -1081 1323 -108 36 -117
38 -242 62 -107 20 -367 23 -480 7z m106 -231 c7 -141 4 -175 -16 -186 -11 -6
-21 -9 -23 -8 -7 8 -107 -13 -197 -40 -116 -36 -248 -101 -341 -169 l-66 -48
-75 76 -74 77 28 23 c178 144 429 255 648 288 22 3 41 7 42 8 1 1 18 3 38 4
32 2 35 0 36 -25z m344 12 c231 -39 483 -156 658 -305 4 -4 -26 -41 -67 -82
l-74 -76 -69 50 c-102 75 -270 152 -397 184 -61 14 -125 27 -143 27 -18 1 -33
6 -34 12 -3 34 -4 191 0 199 3 7 43 5 126 -9z m-1216 -536 c39 -38 71 -74 71
-80 0 -5 -19 -35 -43 -68 -50 -67 -116 -190 -147 -273 -20 -53 -24 -67 -36
-127 -3 -14 -7 -27 -9 -31 -2 -4 -7 -26 -10 -51 -10 -75 -11 -78 -18 -85 -4
-4 -52 -7 -108 -8 l-101 -1 6 55 c28 246 127 489 281 688 22 28 41 51 42 52 1
0 33 -32 72 -71z m2093 -4 c100 -134 188 -316 227 -473 19 -76 24 -103 37
-194 7 -55 22 -49 -123 -51 l-82 -2 -12 70 c-6 39 -15 84 -20 101 -5 17 -11
40 -14 50 -18 88 -109 273 -176 360 -21 28 -39 55 -39 61 0 16 142 155 150
146 4 -4 27 -35 52 -68z m-2278 -960 c3 -16 8 -48 12 -70 25 -162 108 -352
221 -503 l32 -43 -77 -74 c-42 -41 -79 -72 -82 -67 -100 117 -195 284 -248
437 -39 109 -81 322 -69 342 3 4 50 8 105 8 l101 0 5 -30z m2542 -5 c0 -39
-18 -141 -41 -230 -43 -166 -161 -389 -275 -523 -4 -4 -41 26 -82 67 l-76 74
48 65 c53 74 119 195 149 277 26 72 61 211 61 245 0 55 9 60 117 60 l98 -1 1
-34z m-1921 -897 c137 -71 312 -124 418 -127 11 0 17 -9 18 -26 1 -32 1 -160
0 -179 -1 -15 -50 -11 -181 15 -197 40 -411 143 -588 282 l-23 18 76 76 75 77
63 -47 c34 -26 98 -66 142 -89z m1370 61 c42 -42 73 -80 68 -84 -74 -64 -220
-156 -309 -196 -69 -31 -214 -84 -214 -78 0 2 -12 -1 -27 -7 -29 -11 -183 -39
-218 -39 -19 0 -20 6 -19 100 0 55 3 102 6 105 2 3 51 14 108 25 125 26 201
51 301 101 77 38 211 125 217 140 2 5 5 9 7 9 2 0 38 -34 80 -76z"/>
</g>
</svg>
